<svg id="ear" xmlns="http://www.w3.org/2000/svg" viewBox="0 0 176.41 178.71"><path id="ear-lobe" d="M11.56,73.2c.12,2,2.9,3.44,5,2.34s1.79-3.75,1.79-3.75a46,46,0,0,1,1.21-16.3S22.76,41.73,34.74,33,55.83,22.41,55.83,22.41a62.24,62.24,0,0,1,33.65.35s15.14,2.92,25.74,19.72S122.85,82,122.85,82s.05,7.06-6.48,16.8-22.13,19.72-22.13,19.72-8.31,6.08-12.61,11.06a24.6,24.6,0,0,0-5.33,9.58c-2.35,18.05-8.77,26.42-8.77,26.42-9.12,15.31-22.59,16.51-22.59,16.51-23.79,3.1-26.48-25.95-26.48-25.95s-.82-4.52-4.53-3.43-2,7-2,7C15.13,178.05,26,184.47,26,184.47c16.51,11.07,32.15,0,32.15,0S65.41,181.2,73,170.25s9.58-24.13,9.58-24.13c.46-5.79,1.66-7.51,1.66-7.51,2-5.62,11.92-12.55,11.92-12.55,25.34-17.54,29.24-28.44,29.24-28.44,15.82-33.13-7.28-63.91-7.28-63.91S105.76,15.42,78.19,13A68.43,68.43,0,0,0,32,25.91C9.17,44.08,11.26,63.37,11.26,71.63Z" transform="translate(-11.21 -10.68)"/><path id="ear-inner" d="M24.59,119.6a2.85,2.85,0,0,1,2.68,2.75c.38,2.75,1,7,1.83,8.41s4.44,15,18,6.57c0,0,4.66-3.21,3.59-8.56a21.47,21.47,0,0,1,5.35-12.84c5.28-5.89,15-11.24,15-11.24a62.54,62.54,0,0,1,6.21-3.11,11.37,11.37,0,0,0,4.42-3.78s4.76-5.79,0-17.72-14.91-14.5-14.91-14.5-7.33-3-18.57,1.66c0,0-6.08,3-6.53,3.5s.34,7.34,2.23,11.81,4.76,10.43,6,11.63a4,4,0,0,1-2,4.65c-2.93,1.49-4.59-1.49-4.59-1.49A54.11,54.11,0,0,1,35.77,80.6c-2.06-9-1.38-6-1.2-13.93s6.36-15.48,6.36-15.48,5.68-8.31,17.83-12,20.58-1.6,20.58-1.6a33,33,0,0,1,22.58,13.76s4.93,5.56,6,17.08a7.85,7.85,0,0,1-.46,5.22,3.68,3.68,0,0,1-5.84-.41S100.32,60.31,96,55s-11.41-11.23-24-11.23a36.9,36.9,0,0,0-21.5,7.34,24.89,24.89,0,0,0-7.74,10.77,37.2,37.2,0,0,1,22.53-4.07C78.42,59.5,85.53,72.06,85.53,72.06A29.2,29.2,0,0,1,89.6,97.62s-1.55,6-6.48,8.89-12.09,5.67-15.94,9-7.33,5.5-9,10.78a53.6,53.6,0,0,0-.68,6.7c0,2.07-1.55,6.37-6.42,9.92S41.39,148.13,34,146s-10.89-10.9-11.75-13.82-2.58-8.65-1.43-11.29A3.12,3.12,0,0,1,23,119.46,4.92,4.92,0,0,1,24.59,119.6Z" transform="translate(-11.21 -10.68)"/><path id="grow1" d="M149.72,34.19s19.56,22.05,8.78,54.61a3.05,3.05,0,0,1-2.95,1.89c-2.23-.06-3.38-2.67-3.38-2.67a8.32,8.32,0,0,1,.49-4.27c.88-2.12,6.42-26.83-8-45.51a4.34,4.34,0,0,1,.57-3c.41-.55.83-1.22,4-1.31Z" transform="translate(-11.21 -10.68)"/><path id="grow1-2" data-name="grow1" d="M174.86,11.08s20.76,35.3,9.32,87.41c0,0-.76,3.12-3.13,3s-3.59-4.27-3.59-4.27a19.6,19.6,0,0,1,.52-6.83c.94-3.4,6.81-42.94-8.52-72.86a10,10,0,0,1,.61-4.77c.42-.88.87-1.95,4.19-2.11Z" transform="translate(-11.21 -10.68)"/></svg>