<svg id="Layer_1" data-name="Layer 1" xmlns="http://www.w3.org/2000/svg" viewBox="0 0 172.41 174.86"><defs><style>.cls-1,.cls-2{fill:none;stroke-miterlimit:10;stroke-width:2px;}.cls-1{stroke:#000;}.cls-2{stroke:red;}.cls-3,.cls-7{fill:#fff;}.cls-4{fill:red;}.cls-5{fill:#00acee;}.cls-6{fill:#006fff;}.cls-7{font-size:36px;font-family:Bauhaus93, "Bauhaus 93";}</style></defs><path class="cls-1" d="M33.19,133.74l18.12,22.47s2.63,2.64,7.68,0l7.22-5.16-16-20.41,16-.68s13.05,0,24.15,13.64a3,3,0,0,0,2.48,1.13,5.21,5.21,0,0,0,4.67-4.34L88.34,79.17S83.87,74.24,80,80.66c0,0-3.4,17.33-28.13,21.31-.55.08-1.11.17-1.68.24l-25.75,3.58a8.85,8.85,0,0,0-5.81,3.32c-3.59,4.58-8.33,14,2.61,23.47a7.87,7.87,0,0,0,6,1.83Z" transform="translate(-13.43 -10.09)"/><line class="cls-1" x1="19.76" y1="123.65" x2="36.73" y2="120.55"/><line class="cls-1" x1="10.59" y1="104.85" x2="23.66" y2="103.13"/><line class="cls-1" x1="12.42" y1="113.68" x2="25.04" y2="111.84"/><line class="cls-2" x1="39.56" y1="91.68" x2="39.56" y2="91.68"/><line class="cls-1" x1="42.54" y1="120.31" x2="38.41" y2="91.88"/><path class="cls-1" d="M102.78,91.43s20.41,12.73,4.25,31.42" transform="translate(-13.43 -10.09)"/><path class="cls-1" d="M113,81.8s29.06,20.07,6,49.53" transform="translate(-13.43 -10.09)"/><rect class="cls-3" x="132.09" y="131.6" width="46.93" height="46.93" rx="2.68" transform="translate(58.47 -58.11) rotate(22.7)"/><path class="cls-4" d="M167.48,149.68l-17.59-7.36a3.92,3.92,0,0,0-5.12,2.11l-3.93,9.37a3.92,3.92,0,0,0,2.11,5.13l17.59,7.36a3.92,3.92,0,0,0,5.12-2.1l3.93-9.38A3.93,3.93,0,0,0,167.48,149.68ZM152,156.82l2.36-6.66,4.73,5.49Z" transform="translate(-13.43 -10.09)"/><rect class="cls-5" x="133.59" y="35.05" width="46.93" height="46.93" rx="2.68" transform="translate(11.66 -54.89) rotate(17.62)"/><rect class="cls-6" x="42.73" y="11.15" width="46.93" height="46.93" rx="2.68" transform="translate(-15.15 -6.58) rotate(-3)"/><text class="cls-7" transform="translate(52.77 36.6) rotate(-3)">F</text><path class="cls-3" d="M142.05,62.77A13,13,0,0,0,155.52,68a15.57,15.57,0,0,0,11.7-9.48l.36-1.39,0-.14a6.2,6.2,0,0,0,2.84-1.46h-2.84a5.8,5.8,0,0,0,3.06-2.27h-3.35s-2.15-3.69-5-2.89c0,0-4.21-.34-5.31,4.56,0,0-6.64-2.24-8.19-8.23a4,4,0,0,0-2,3.7c0,2.75,1.27,3.27,1.27,3.27a2.13,2.13,0,0,1-1.9-1,8,8,0,0,0-.22,3.27,6.76,6.76,0,0,0,2.14,2.59,2.44,2.44,0,0,1-1.94-.61s.34,3.84,3.29,4.93A9.11,9.11,0,0,1,142.05,62.77Z" transform="translate(-13.43 -10.09)"/></svg>